<?xml version="1.0" encoding="UTF-8" standalone="no"?>
<!-- Created with Inkscape (http://www.inkscape.org/) -->

<svg
   xmlns:dc="http://purl.org/dc/elements/1.1/"
   xmlns:cc="http://creativecommons.org/ns#"
   xmlns:rdf="http://www.w3.org/1999/02/22-rdf-syntax-ns#"
   xmlns:svg="http://www.w3.org/2000/svg"
   xmlns="http://www.w3.org/2000/svg"
   xmlns:sodipodi="http://sodipodi.sourceforge.net/DTD/sodipodi-0.dtd"
   xmlns:inkscape="http://www.inkscape.org/namespaces/inkscape"
   version="1.1"
   id="svg274"
   width="594.66669"
   height="161.33333"
   viewBox="0 0 594.66669 161.33333"
   sodipodi:docname="logo.svg"
   inkscape:version="0.92.5 (2060ec1f9f, 2020-04-08)">
  <metadata
     id="metadata280">
    <rdf:RDF>
      <cc:Work
         rdf:about="">
        <dc:format>image/svg+xml</dc:format>
        <dc:type
           rdf:resource="http://purl.org/dc/dcmitype/StillImage" />
        <dc:title></dc:title>
      </cc:Work>
    </rdf:RDF>
  </metadata>
  <defs
     id="defs278" />
  <sodipodi:namedview
     pagecolor="#ffffff"
     bordercolor="#666666"
     borderopacity="1"
     objecttolerance="10"
     gridtolerance="10"
     guidetolerance="10"
     inkscape:pageopacity="0"
     inkscape:pageshadow="2"
     inkscape:window-width="1920"
     inkscape:window-height="1030"
     id="namedview276"
     showgrid="false"
     inkscape:zoom="1.1275224"
     inkscape:cx="172.28625"
     inkscape:cy="119.72286"
     inkscape:window-x="1920"
     inkscape:window-y="26"
     inkscape:window-maximized="0"
     inkscape:current-layer="svg274" />
  <path
     style="fill:#d0d0d0;fill-opacity:1;stroke-width:1.33333337"
     d="m 2.2772651,159.40204 c -1.85370797,-2.23358 -1.39872497,-78.353047 0.492757,-82.439087 2.027173,-4.37917 6.585894,-5.44984 25.7273439,-6.04237 24.291473,-0.75195 23.722869,-0.26037 23.722869,-20.50935 0,-14.3903 -0.06434,-14.69748 -3.741018,-17.86002 -2.388687,-2.05466 -5.401082,-3.21789 -8.333334,-3.21789 h -4.592315 v 13.11111 c 0,13.69253 -0.570931,15.84815 -3.543988,13.38073 -1.284044,-1.06566 -1.789346,-5.34634 -1.789346,-15.1585 0,-16.26792 0.755022,-17.44197 10.321222,-16.04931 13.123217,1.91049 16.94649,7.64989 16.908521,25.38264 -0.04912,22.94048 -3.687624,26 -30.920251,26 -11.529605,0 -17.6312969,0.5218 -18.7094919,1.6 -1.170371,1.17037 -1.6,11.91111 -1.6,39.999997 v 38.4 H 18.193717 30.167201 l 0.359849,-28.33333 0.359851,-28.333337 14.176445,-0.80511 c 17.856371,-1.0141 24.97079,-4.04033 30.68813,-13.0537 7.491035,-11.8096 10.57575,-29.41999 7.877205,-44.97035 C 81.600125,28.814613 78.458464,21.747203 72.222204,14.844413 64.867112,6.7032033 58.786706,5.3333233 30.00584,5.3333233 H 6.2754481 l -0.36094,26.9999997 c -0.306809,22.9507 -0.66089,27 -2.360941,27 -1.702372,0 -2.053705,-4.14152 -2.360882,-27.83019 -0.25160897,-19.40332 0.100621,-28.3862597 1.163259,-29.6666597 1.793451,-2.16097999 25.8159719,-2.46068999 46.8124829,-0.58406 15.232386,1.36145 22.007114,4.45586 28.544297,13.0378297 16.165678,21.22221 14.38569,63.39927 -3.351914,79.42413 -6.176465,5.58006 -14.681368,8.457227 -28.473908,9.632567 l -10.333334,0.88057 v 27.74359 c 0,24.06853 -0.279375,27.8508 -2.109049,28.5529 -1.159979,0.44514 -8.286511,0.80932 -15.836742,0.80932 -10.3586959,0 -14.1210489,-0.47397 -15.3305119,-1.93128 z M 143.44751,159.8989 c -17.43497,-2.70162 -30.76214,-18.08612 -32.21043,-37.18281 -0.38903,-5.12959 -1.33206,-4.77216 19.23987,-7.29235 l 7.59005,-0.92982 0.86217,4.59577 c 0.47419,2.52767 1.99986,6.46654 3.39036,8.75304 2.11568,3.47896 3.34718,4.15393 7.54778,4.13684 2.76078,-0.0112 5.74633,-0.48225 6.63454,-1.04672 2.12504,-1.35047 5.71294,-10.03452 5.7388,-13.89003 0.0301,-4.49159 2.16275,-7.393 4.04819,-5.50756 2.30827,2.30827 -0.90413,15.66853 -4.91293,20.43272 -8.61338,10.23641 -22.80986,5.03233 -26.33178,-9.65256 -0.70448,-2.93736 -1.486,-3.5605 -3.85379,-3.07279 -1.63355,0.33647 -5.8201,0.98129 -9.30343,1.43293 -7.46542,0.96794 -7.75894,2.0808 -3.52998,13.3837 3.52628,9.42484 8.82639,15.51294 16.7458,19.2355 7.66026,3.60075 20.1988,3.95702 27.8062,0.79008 19.34103,-8.0516 29.88326,-36.06075 29.95156,-79.576857 0.0719,-45.80637 -12.6419,-69.0513997 -37.81889,-69.1453697 -11.54997,-0.0431 -17.93437,2.34709 -24.96367,9.3459597 -8.80042,8.76233 -12.06678,18.08441 -12.87176,36.73568 -0.73935,17.13044 1.0974,25.53176 7.79135,35.63778 5.2942,7.99279 12.00884,11.58462 21.65645,11.58462 15.07136,0 18.83392,-7.88588 18.873,-39.55545 0.0245,-19.8407 -0.19714,-21.86607 -2.77252,-25.33783 -2.02516,-2.73002 -4.1543,-3.88836 -7.70024,-4.1892 -4.49953,-0.38175 -5.06224,-0.0302 -6.86754,4.29051 -2.69372,6.44699 -2.7259,35.05996 -0.0467,41.47235 2.05485,4.91797 0.70805,7.38717 -2.55306,4.68069 -4.28426,-3.55562 -6.23554,-28.73686 -3.2908,-42.46769 3.15594,-14.71562 18.29744,-17.61223 24.6943,-4.72408 2.23705,4.50714 2.5605,8.13219 2.54274,28.49737 -0.0185,21.25863 -0.27373,23.80755 -2.87024,28.66667 -3.85141,7.20758 -8.04334,10.812087 -14.59553,12.550217 -9.98823,2.64963 -21.0621,-1.42703 -28.96898,-10.664427 -16.11043,-18.82146 -14.55232,-62.12277 2.86201,-79.5371 11.64146,-11.64146969 30.99209,-14.8133997 45.40444,-7.4426597 12.74456,6.5178197 20.62246,20.2116997 24.32009,42.2747697 2.42763,14.48513 0.84871,57.560837 -2.581,70.414597 -8.4264,31.58021 -25.42159,46.0588 -49.65647,42.30351 z m 109.78748,-0.14618 C 251.16642,157.26024 219.04598,4.5792933 220.04338,1.9800933 c 1.00982,-2.63155999 29.09347,-2.91367999 31.20156,-0.31343 1.15493,1.42456 16.30864,78.1264297 16.30864,82.5476697 0,0.85989 0.40072,1.16272 0.89049,0.67295 0.48976,-0.48977 3.96071,-19.33559 7.7132,-41.87959 5.39726,-32.42535 7.25682,-41.0726997 8.9005,-41.3892497 1.72314,-0.33185 4.39674,11.2725097 15.66481,67.9906997 7.47285,37.614967 14.56405,71.065257 15.7582,74.333977 3.49755,9.57375 6.86392,12.05687 16.34554,12.05687 4.43333,0 8.0606,-0.27908 8.0606,-0.62017 0,-0.34111 6.8999,-33.79111 15.33312,-74.333337 8.43321,-40.54224 15.33321,-74.1631597 15.33333,-74.7131597 1.2e-4,-0.55 -5.39979,-1 -11.99979,-1 -6.6,0 -12,0.3554 -12,0.78978 0,3.75026 -17.85768,96.1713567 -18.76585,97.1213267 -0.65434,0.68445 -1.61764,0.81651 -2.14067,0.29348 -0.99605,-0.99605 -16.37851,-93.9934567 -16.40916,-99.2045867 -0.01,-1.65 0.79873,-3 1.79655,-3 1.34632,0 3.46084,10.2301097 8.19897,39.6666697 5.65465,35.13074 8.29937,48.52296 8.56897,43.39141 0.38486,-7.32482 15.28858,-82.5725497 16.50811,-83.3480797 2.19047,-1.39298999 27.83234,-1.26270999 30.06668,0.15277 1.48954,0.94363 -1.15906,15.5336297 -14.4584,79.6448497 -8.95509,43.169267 -16.9757,78.971457 -17.8236,79.560417 -2.56557,1.78211 -19.1642,0.1526 -22.81549,-2.23982 -6.63663,-4.34847 -8.68599,-11.58339 -21.5065,-75.924827 -6.86068,-34.43119 -12.7309,-62.85912 -13.04496,-63.17318 -0.31405,-0.31406 -1.25438,3.51817 -2.08962,8.51606 -11.69726,69.99406 -12.8142,75.753727 -14.6905,75.753727 -2.14506,0 -2.17117,-0.11687 -13.47312,-60.333327 l -7.0696,-37.6666697 h -11.75924 c -8.04407,0 -11.75924,0.48953 -11.75924,1.54946 0,0.8522 6.9,34.3549397 15.33333,74.4505397 8.43334,40.095607 15.33334,73.298347 15.33334,73.783877 0,0.48554 3.46649,0.88279 7.70332,0.88279 13.09347,0 15.76753,-3.72309 20.35004,-28.33333 2.20123,-11.8216 3.41292,-15.66667 4.93703,-15.66667 1.66324,0 1.85924,1.23582 1.11021,7 -2.78131,21.40389 -7.52004,35.00247 -13.58139,38.974 -4.6965,3.07727 -20.7241,4.32559 -22.8378,1.77873 z m 146.65193,0.70803 c -1.25764,-0.51536 -1.66616,-7.44564 -1.6646,-28.23854 0.003,-30.31507 0.75194,-33.826237 8.42521,-39.460777 3.45209,-2.53489 5.94069,-2.797 30.33334,-3.19486 l 26.57272,-0.43341 v -9.86008 -9.86009 l -17,-0.37317 -17,-0.37316 v -20 -20 l 22.33333,-0.36558 22.33333,-0.36557 V 16.634423 5.3333233 h -35.31257 -35.31256 l -0.35411,37.6489197 c -0.32573,34.63318 -0.541,37.68487 -2.68743,38.09777 -2.18042,0.41943 -2.33333,-2.17726 -2.33333,-39.62352 V 1.3841333 l 3,-0.73293999 c 1.65,-0.40311 19.5,-0.56454 39.66667,-0.35873 l 36.66667,0.3742 v 15.99999969 16 l -22.33334,0.36557 -22.33333,0.36557 v 15.30109 15.3011 h 17.377 17.377 l -0.377,15 -0.377,15 -29.12049,0.66666 c -28.61871,0.65518 -29.16437,0.72091 -31.66667,3.81438 -2.31984,2.867907 -2.54618,5.564307 -2.54618,30.333337 v 27.18562 h 35.33334 35.33333 v -11.33333 -11.33334 h -22.7167 -22.7167 l 0.38336,-12.33333 c 0.45687,-14.69764 2.87703,-16.5956 3.44115,-2.69864 l 0.39109,9.63469 22.27558,0.36531 22.27556,0.36531 v 16 16 l -38,0.23854 c -20.9,0.1312 -38.75001,-0.0688 -39.66667,-0.44445 z M 501.497,159.66666 c -1.3024,-3.39403 0.0423,-114.330767 1.38992,-114.667167 0.86878,-0.21687 1.45458,19.06248 1.6813,55.333827 l 0.34796,55.66667 h 27.74337 c 32.45177,0 38.278,-1.14048 45.77039,-8.95957 6.2779,-6.55164 8.56672,-11.28292 10.43053,-21.56122 1.1172,-6.16095 1.13847,-10.89601 0.0796,-17.72042 -2.23109,-14.379767 -6.96951,-21.873797 -17.05317,-26.970397 -5.33603,-2.697 -5.44239,-4.14639 -0.49216,-6.70626 5.49453,-2.84133 10.51566,-9.31342 12.26518,-15.80942 2.38943,-8.87202 0.98507,-29.81962 -2.44024,-36.39895 -3.65094,-7.01277 -10.89672,-13.3497397 -17.29632,-15.1269197 -2.77004,-0.76925 -17.18644,-1.40198 -32.03644,-1.40607 l -27,-0.007 v 9.9999997 10 l 20.33334,0.002 c 16.72322,0.002 21.14505,0.41598 24.90522,2.33333 7.29828,3.72148 9.94838,8.46198 10.45792,18.70722 0.79508,15.98613 -5.68237,21.62398 -24.84433,21.62398 -8.40559,0 -10.73237,0.43137 -11.37616,2.10905 -1.12931,2.94292 -0.97559,15.58112 0.21109,17.35639 0.54119,0.8096 7.16948,1.83338 14.81043,2.28756 8.77489,0.52158 14.94129,1.54971 16.86857,2.81251 4.8383,3.17018 7.79764,12.704077 6.92626,22.313837 -1.38991,15.32811 -7.81628,19.78209 -28.54698,19.78525 -8.53349,0.001 -13.92878,-0.54936 -14.50416,-1.48034 -1.72272,-2.78742 2.76138,-3.8101 16.79546,-3.83051 10.32673,-0.015 14.7955,-0.55193 16.90776,-2.03141 3.91357,-2.74118 6.37882,-14.59907 4.49194,-21.60641 -2.6183,-9.723627 -3.62756,-10.305127 -19.20328,-11.064347 -18.42478,-0.8981 -19.56641,-1.83076 -19.56641,-15.98491 0,-13.86387 1.37767,-15.10177 17.80657,-16 6.70639,-0.36667 13.28318,-1.31277 14.6151,-2.10244 5.23812,-3.1056 5.80609,-20.17992 0.87418,-26.27907 -2.26709,-2.80364 -3.61462,-2.9853 -26.84138,-3.61849 l -24.45447,-0.66667 V 15.333623 0.66696331 l 29.33333,0.12185 c 35.06808,0.14567 38.8915,0.92774999 47.33334,9.68205969 8.39429,8.70501 11.33985,17.43792 11.30924,33.52942 -0.0207,10.85891 -0.52604,13.74472 -3.54119,20.22038 -1.93441,4.15454 -5.05512,8.56146 -6.93492,9.79316 l -3.41783,2.23944 6.42478,6.25792 c 8.78195,8.55389 11.4988,16.6403 11.47556,34.155767 -0.0153,11.51993 -0.48499,14.3307 -3.45355,20.66666 -9.64512,20.58608 -18.89091,23.96878 -65.5706,23.98988 -16.67784,0.008 -22.53804,-0.41425 -23.01475,-1.65654 z"
     id="path3993"
     inkscape:connector-curvature="0" />
  <path
     style="fill:#000000;stroke-width:1.33333337"
     d=""
     id="path3989"
     inkscape:connector-curvature="0" />
  <path
     style="fill:#000000;stroke-width:1.33333337"
     d=""
     id="path3987"
     inkscape:connector-curvature="0" />
</svg>
