{
    "asset" : {
        "generator" : "Khronos glTF Blender I/O v1.7.33",
        "version" : "2.0"
    },
    "scene" : 0,
    "scenes" : [
        {
            "name" : "Scene",
            "nodes" : [
                0
            ]
        }
    ],
    "nodes" : [
        {
            "mesh" : 0,
            "name" : "path4065",
            "scale" : [
                39.5749397277832,
                20.207090377807617,
                39.5749397277832
            ],
            "translation" : [
                -1.6325852870941162,
                0.30491936206817627,
                3.3205275535583496
            ]
        }
    ],
    "materials" : [
        {
            "doubleSided" : true,
            "emissiveFactor" : [
                1,
                0.26343341916799545,
                1
            ],
            "name" : "glow",
            "pbrMetallicRoughness" : {}
        }
    ],
    "meshes" : [
        {
            "name" : "path4065",
            "primitives" : [
                {
                    "attributes" : {
                        "POSITION" : 0,
                        "NORMAL" : 1,
                        "TEXCOORD_0" : 2
                    },
                    "indices" : 3,
                    "material" : 0
                }
            ]
        }
    ],
    "accessors" : [
        {
            "bufferView" : 0,
            "componentType" : 5126,
            "count" : 28284,
            "max" : [
                0.0965171530842781,
                0.001500000013038516,
                -3.5592413041740656e-05
            ],
            "min" : [
                0.00045711908023804426,
                -0.001500000013038516,
                -0.1550995409488678
            ],
            "type" : "VEC3"
        },
        {
            "bufferView" : 1,
            "componentType" : 5126,
            "count" : 28284,
            "type" : "VEC3"
        },
        {
            "bufferView" : 2,
            "componentType" : 5126,
            "count" : 28284,
            "type" : "VEC2"
        },
        {
            "bufferView" : 3,
            "componentType" : 5123,
            "count" : 122292,
            "type" : "SCALAR"
        }
    ],
    "bufferViews" : [
        {
            "buffer" : 0,
            "byteLength" : 339408,
            "byteOffset" : 0
        },
        {
            "buffer" : 0,
            "byteLength" : 339408,
            "byteOffset" : 339408
        },
        {
            "buffer" : 0,
            "byteLength" : 226272,
            "byteOffset" : 678816
        },
        {
            "buffer" : 0,
            "byteLength" : 244584,
            "byteOffset" : 905088
        }
    ],
    "buffers" : [
        {
            "byteLength" : 1149672,
            "uri" : "data:application/octet-stream;base64,"
        }
    ]
}
